<svg width="256" height="256" viewBox="0 0 256 256" fill="none" xmlns="http://www.w3.org/2000/svg">
<circle cx="128" cy="128" r="94" fill="black"/>
<circle cx="127.891" cy="127.891" r="63.8906" fill="#001651"/>
<path d="M49.7034 121.117H88.5954C87.751 143.171 83.529 159.537 75.9294 170.216C68.3299 180.846 57.1043 186.161 42.2529 186.161C30.7293 186.161 21.9376 182.634 15.8778 175.581C9.86771 168.478 6.86264 158.221 6.86264 144.81C6.86264 134.33 8.1044 124.346 10.5879 114.859C13.1211 105.372 16.6477 97.3002 21.1677 90.6443C25.0917 84.8329 30.0091 80.4619 35.9199 77.5313C41.8307 74.5511 48.6107 73.061 56.2599 73.061C65.7967 73.061 73.5453 75.2962 79.5057 79.7665C85.5158 84.1872 89.3156 90.545 90.9051 98.84L62.9654 109.196C62.1707 105.769 61.1276 103.385 59.8362 102.044C58.5944 100.653 56.856 99.9576 54.6208 99.9576C52.2863 99.9576 50.2498 100.777 48.5113 102.416C46.7729 104.055 45.2828 106.589 44.041 110.016C42.3522 114.834 40.8621 121.043 39.5706 128.642C38.2792 136.192 37.6335 142.699 37.6335 148.163C37.6335 152.335 38.2047 155.29 39.3471 157.029C40.5392 158.718 42.526 159.562 45.3076 159.562C48.7349 159.562 51.4667 158.097 53.5032 155.166C55.5894 152.236 56.8063 148.063 57.154 142.649H46.7977L49.7034 121.117ZM88.5209 184L105.806 75.2217H136.13L128.977 120.67L152.968 75.2217H183.888L153.713 125.439L167.422 184H134.491L126.817 134.528L118.919 184H88.5209ZM174.873 153.602C178.598 156.036 182.348 157.873 186.123 159.115C189.898 160.357 193.574 160.978 197.15 160.978C202.018 160.978 205.818 159.711 208.55 157.178C211.331 154.595 212.722 151.068 212.722 146.598C212.722 142.376 211.207 139.197 208.177 137.061C205.197 134.876 200.702 133.783 194.692 133.783C192.357 133.783 189.799 134.032 187.017 134.528C184.286 135.025 181.305 135.795 178.077 136.838L197.299 75.2217H251.465L247.814 99.138H213.914L208.922 114.71C210.661 114.362 212.3 114.114 213.839 113.965C215.379 113.766 216.894 113.667 218.384 113.667C226.53 113.667 232.913 116.051 237.532 120.819C242.152 125.538 244.461 132.045 244.461 140.34C244.461 154.049 240.264 165.125 231.87 173.569C223.525 181.964 212.399 186.161 198.491 186.161C192.928 186.161 187.589 185.565 182.473 184.373C177.357 183.18 172.067 181.318 166.603 178.785L174.873 153.602Z" fill="white"/>
</svg>
